<?xml version="1.0" encoding="UTF-8" standalone="no"?>
<svg
   xmlns:dc="http://purl.org/dc/elements/1.1/"
   xmlns:cc="http://creativecommons.org/ns#"
   xmlns:rdf="http://www.w3.org/1999/02/22-rdf-syntax-ns#"
   xmlns:svg="http://www.w3.org/2000/svg"
   xmlns="http://www.w3.org/2000/svg"
   width="1024"
   height="1024"
   viewBox="0 0 270.93333 270.93333"
   version="1.1"
   id="svg8">
  <defs
     id="defs2" />
  <metadata
     id="metadata5">
    <rdf:RDF>
      <cc:Work
         rdf:about="">
        <dc:format>image/svg+xml</dc:format>
        <dc:type
           rdf:resource="http://purl.org/dc/dcmitype/StillImage" />
        <dc:title></dc:title>
      </cc:Work>
    </rdf:RDF>
  </metadata>
  <g
     id="layer1">
    <path
       d="m 193.61781,90.512682 c 0,37.486208 -26.33436,67.865558 -58.81686,67.865558 -32.48801,0 -58.822382,-30.37935 -58.822382,-67.865558 0,-37.486185 26.334372,-67.870935 58.822382,-67.870935 32.4825,0 58.81686,30.38475 58.81686,67.870935"
       style="fill:#62c6db;fill-opacity:1;fill-rule:nonzero;stroke:none;stroke-width:0.492628"
       id="path336" />
    <path
       d="m 161.60997,90.512682 c 0,17.081558 -12.00827,30.940358 -26.81453,30.940358 -14.80626,0 -26.80903,-13.8588 -26.80903,-30.940358 0,-17.0868 12.00277,-30.9351 26.80903,-30.9351 14.80626,0 26.81453,13.8483 26.81453,30.9351"
       style="fill:#32435b;fill-opacity:1;fill-rule:nonzero;stroke:none;stroke-width:0.492628"
       id="path338" />
    <path
       d="m 119.93553,48.925452 c 10.11238,0 18.29949,9.45621 18.29949,21.124335 0,11.662845 -8.18711,21.113745 -18.29949,21.113745 -10.11284,0 -18.30364,-9.4509 -18.30364,-21.113745 0,-0.58215 0.0221,-1.1589 0.0754,-1.72509 1.6987,1.09545 3.64596,1.72509 5.74182,1.72509 6.44026,0 11.66248,-6.021915 11.66248,-13.45671 0,-2.73579 -0.69888,-5.29695 -1.94727,-7.408335 0.8957,-0.16935 1.8216,-0.25935 2.77139,-0.25935"
       style="fill:#ffffff;fill-opacity:1;fill-rule:nonzero;stroke:none;stroke-width:0.492628"
       id="path340" />
    <path
       d="m 17.043378,90.512682 c 13.462984,16.314158 61.643753,69.469058 117.757572,69.469058 56.21563,0 104.31935,-53.1495 117.75528,-69.463808 -13.45749,-16.31415 -61.64375,-69.47427 -117.75528,-69.47427 -56.113819,0 -104.294588,53.15472 -117.757572,69.46902 z M 134.80095,174.47549 c -71.824917,0 -128.6798598,-76.030653 -131.0627988,-79.263758 -1.9935762,-2.70945 -1.9935762,-6.6888 0,-9.39285 2.382939,-3.2385 59.2378818,-79.2743781 131.0627988,-79.2743781 71.81896,0 128.67434,76.0358781 131.06417,79.2743781 1.98853,2.70405 1.98853,6.6834 0,9.39285 -2.38983,3.233105 -59.24521,79.263758 -131.06417,79.263758"
       style="fill:#5e6061;fill-opacity:1;fill-rule:nonzero;stroke:none;stroke-width:0.492628"
       id="path342" />
    <path
       d="m 268.83875,204.68039 c 0,42.86775 -16.71225,59.73225 -37.32682,59.73225 -20.61595,0 -37.33002,-16.8645 -37.33002,-59.73225 0,-42.8625 37.33002,-115.802858 37.33002,-115.802858 0,0 37.32682,72.940358 37.32682,115.802858"
       style="fill:#43a2cd;fill-opacity:1;fill-rule:nonzero;stroke:none;stroke-width:0.492628"
       id="path344" />
    <path
       d="m 258.75298,224.16434 c 0,9.6837 -6.80029,17.526 -15.18966,17.526 -8.38938,0 -15.1915,-7.8423 -15.1915,-17.526 0,-9.67845 6.80212,-17.526 15.1915,-17.526 8.38937,0 15.18966,7.84755 15.18966,17.526"
       style="fill:#ffffff;fill-opacity:1;fill-rule:nonzero;stroke:none;stroke-width:0.492628"
       id="path346" />
  </g>
</svg>
